# xmcd
#
# Track frame offsets: 
#        150
#        24006
#        44225
#        62344
#        79394
#        99166
#        117913
#        137645
#        152369
#        172206
#        193867
#        210900
#        227360
#        244148
#        260730
#        284496
#        303548
#        320339
#
# Disc length: 4542 seconds
#
# Revision: 0
# Processed by: cddbd v1.5.2PL0 Copyright (c) Steve Scherf et al.
# Submitted via: ExactAudioCopy v1.0b3
#
DISCID=f511bc12
DTITLE=Artist - THE BEST BLUES MUSIC 3
DYEAR=1900
DGENRE=Acid Jazz
TTITLE0=I BELIEVE I CAN FLY
TTITLE1=JUST ONE LAST DANCE
TTITLE2=BURNING
TTITLE3=I COULD BE THE ON
TTITLE4=HERO
TTITLE5=A PLACE NEARBY
TTITLE6=BACK AT ONE
TTITLE7=HEARTBREAKER
TTITLE8=MOONLIGHT SHADOW
TTITLE9=SPANISH GUITAR
TTITLE10=WHEN YOU TOLD ME YOU LOVED ME
TTITLE11=BECAUSE OF YOU
TTITLE12=HOME 
TTITLE13=SEVENDAY
TTITLE14=STAY
TTITLE15=SEPERATED
TTITLE16=SAT IT RIGHT
TTITLE17=PLEASE SISTER
EXTD=
EXTT0=
EXTT1=
EXTT2=
EXTT3=
EXTT4=
EXTT5=
EXTT6=
EXTT7=
EXTT8=
EXTT9=
EXTT10=
EXTT11=
EXTT12=
EXTT13=
EXTT14=
EXTT15=
EXTT16=
EXTT17=
PLAYORDER=
